HIERARCHY
ROOT hip
{
  OFFSET 0.00112043 5.09927 -9.65472
  CHANNELS 6 Xposition Yposition Zposition Zrotation Xrotation Yrotation
  JOINT abdomen
  {
    OFFSET 0 -1.186 -1.5018
    CHANNELS 3 Zrotation Xrotation Yrotation
    JOINT abdomen2
    {
      OFFSET 0 9.964 0.2134
      CHANNELS 3 Zrotation Xrotation Yrotation
      JOINT chest
      {
        OFFSET 0 13.134 -3.2573
        CHANNELS 3 Zrotation Xrotation Yrotation
        JOINT neck
        {
          OFFSET 0 20.686 -1.6905
          CHANNELS 3 Zrotation Xrotation Yrotation
          JOINT head
          {
            OFFSET 0 7.238 -0.1237
            CHANNELS 3 Zrotation Xrotation Yrotation
            End Site
            {
              OFFSET 0 0 0
            }
          }
        }
        JOINT lCollar
        {
          OFFSET 1.7069 20.075 5.0056
          CHANNELS 3 Zrotation Xrotation Yrotation
          JOINT lShldr
          {
            OFFSET 13.6458 -0.047 -4.849
            CHANNELS 3 Zrotation Xrotation Yrotation
            JOINT lForeArm
            {
              OFFSET 28.3255 -0.9759 2.2888
              CHANNELS 3 Zrotation Xrotation Yrotation
              JOINT lHand
              {
                OFFSET 22.1583 -0.53 10.8316
                CHANNELS 3 Zrotation Xrotation Yrotation
                JOINT lThumb1
                {
                  OFFSET 0.786 0.112 2.5817
                  CHANNELS 3 Zrotation Xrotation Yrotation
                  JOINT lThumb2
                  {
                    OFFSET 0.3601 -0.878 4.2331
                    CHANNELS 3 Zrotation Xrotation Yrotation
                    JOINT lThumb2_End
                    {
                      OFFSET 1.8127 -1.216 2.2227
                      CHANNELS 3 Zrotation Xrotation Yrotation
                      End Site
                      {
                        OFFSET 0.0181 -0.0122 0.0222
                      }
                    }
                  }
                }
                JOINT lCarpal1
                {
                  OFFSET 0.9571 1.114 1.7695
                  CHANNELS 3 Zrotation Xrotation Yrotation
                  JOINT lIndex1
                  {
                    OFFSET 4.1246 0.487 4.1451
                    CHANNELS 3 Zrotation Xrotation Yrotation
                    JOINT lIndex2
                    {
                      OFFSET 3.4052 -1.454 2.7682
                      CHANNELS 3 Zrotation Xrotation Yrotation
                      JOINT lIndex2_End
                      {
                        OFFSET 1.4531 -1.795 1.2713
                        CHANNELS 3 Zrotation Xrotation Yrotation
                        End Site
                        {
                          OFFSET 0.0145 -0.0179 0.0127
                        }
                      }
                    }
                  }
                  JOINT lMid1
                  {
                    OFFSET 5.6954 0.21 2.1184
                    CHANNELS 3 Zrotation Xrotation Yrotation
                    JOINT lMid2
                    {
                      OFFSET 3.9766 -1.54 2.3863
                      CHANNELS 3 Zrotation Xrotation Yrotation
                      JOINT lMid2_End
                      {
                        OFFSET 1.4042 -1.926 1.125
                        CHANNELS 3 Zrotation Xrotation Yrotation
                        End Site
                        {
                          OFFSET 0.014 -0.0193 0.0113
                        }
                      }
                    }
                  }
                }
                JOINT lCarpal2
                {
                  OFFSET 2.0956 0.66 -0.3894
                  CHANNELS 3 Zrotation Xrotation Yrotation
                  JOINT lRing1
                  {
                    OFFSET 5.0395 -0.09 2.4971
                    CHANNELS 3 Zrotation Xrotation Yrotation
                    JOINT lRing2
                    {
                      OFFSET 3.7921 -1.552 1.4806
                      CHANNELS 3 Zrotation Xrotation Yrotation
                      JOINT lRing2_End
                      {
                        OFFSET 1.4655 -1.808 0.9609
                        CHANNELS 3 Zrotation Xrotation Yrotation
                        End Site
                        {
                          OFFSET 0.0147 -0.0181 0.0096
                        }
                      }
                    }
                  }
                  JOINT lPinky1
                  {
                    OFFSET 4.9141 -1.269 0.3591
                    CHANNELS 3 Zrotation Xrotation Yrotation
                    JOINT lPinky2
                    {
                      OFFSET 3.1477 -1.685 0.8462
                      CHANNELS 3 Zrotation Xrotation Yrotation
                      JOINT lPinky2_End
                      {
                        OFFSET 0.8055 -1.585 0.7955
                        CHANNELS 3 Zrotation Xrotation Yrotation
                        End Site
                        {
                          OFFSET 0.0081 -0.0158 0.008
                        }
                      }
                    }
                  }
                }
              }
            }
          }
        }
        JOINT rCollar
        {
          OFFSET -1.7069 20.075 5.0056
          CHANNELS 3 Zrotation Xrotation Yrotation
          JOINT rShldr
          {
            OFFSET -13.6458 -0.047 -4.849
            CHANNELS 3 Zrotation Xrotation Yrotation
            JOINT rForeArm
            {
              OFFSET -28.3255 -0.9759 2.2888
              CHANNELS 3 Zrotation Xrotation Yrotation
              JOINT rHand
              {
                OFFSET -22.1583 -0.53 10.8316
                CHANNELS 3 Zrotation Xrotation Yrotation
                JOINT rThumb1
                {
                  OFFSET -0.786 0.112 2.5817
                  CHANNELS 3 Zrotation Xrotation Yrotation
                  JOINT rThumb2
                  {
                    OFFSET -0.3601 -0.878 4.2331
                    CHANNELS 3 Zrotation Xrotation Yrotation
                    JOINT rThumb2_End
                    {
                      OFFSET -1.8127 -1.216 2.2227
                      CHANNELS 3 Zrotation Xrotation Yrotation
                      End Site
                      {
                        OFFSET -0.0181 -0.0122 0.0222
                      }
                    }
                  }
                }
                JOINT rCarpal1
                {
                  OFFSET -0.9571 1.114 1.7695
                  CHANNELS 3 Zrotation Xrotation Yrotation
                  JOINT rIndex1
                  {
                    OFFSET -4.1246 0.487 4.1451
                    CHANNELS 3 Zrotation Xrotation Yrotation
                    JOINT rIndex2
                    {
                      OFFSET -3.4052 -1.454 2.7682
                      CHANNELS 3 Zrotation Xrotation Yrotation
                      JOINT rIndex2_End
                      {
                        OFFSET -1.4531 -1.795 1.2713
                        CHANNELS 3 Zrotation Xrotation Yrotation
                        End Site
                        {
                          OFFSET -0.0145 -0.018 0.0127
                        }
                      }
                    }
                  }
                  JOINT rMid1
                  {
                    OFFSET -5.6954 0.21 2.1184
                    CHANNELS 3 Zrotation Xrotation Yrotation
                    JOINT rMid2
                    {
                      OFFSET -3.9766 -1.54 2.3863
                      CHANNELS 3 Zrotation Xrotation Yrotation
                      JOINT rMid2_End
                      {
                        OFFSET -1.4042 -1.926 1.125
                        CHANNELS 3 Zrotation Xrotation Yrotation
                        End Site
                        {
                          OFFSET -0.014 -0.0193 0.0113
                        }
                      }
                    }
                  }
                }
                JOINT rCarpal2
                {
                  OFFSET -2.0956 0.66 -0.3894
                  CHANNELS 3 Zrotation Xrotation Yrotation
                  JOINT rRing1
                  {
                    OFFSET -5.0395 -0.09 2.4971
                    CHANNELS 3 Zrotation Xrotation Yrotation
                    JOINT rRing2
                    {
                      OFFSET -3.7921 -1.552 1.4806
                      CHANNELS 3 Zrotation Xrotation Yrotation
                      JOINT rRing2_End
                      {
                        OFFSET -1.4655 -1.808 0.9609
                        CHANNELS 3 Zrotation Xrotation Yrotation
                        End Site
                        {
                          OFFSET -0.0147 -0.0181 0.0096
                        }
                      }
                    }
                  }
                  JOINT rPinky1
                  {
                    OFFSET -4.9141 -1.269 0.3592
                    CHANNELS 3 Zrotation Xrotation Yrotation
                    JOINT rPinky2
                    {
                      OFFSET -3.1477 -1.685 0.8462
                      CHANNELS 3 Zrotation Xrotation Yrotation
                      JOINT rPinky2_End
                      {
                        OFFSET -0.8055 -1.585 0.7955
                        CHANNELS 3 Zrotation Xrotation Yrotation
                        End Site
                        {
                          OFFSET -0.0081 -0.0158 0.008
                        }
                      }
                    }
                  }
                }
              }
            }
          }
        }
      }
    }
  }
  JOINT lThigh
  {
    OFFSET 8.367 -8.2066 0.5982
    CHANNELS 3 Zrotation Xrotation Yrotation
    JOINT lShin
    {
      OFFSET 2.1923 -43.463 -0.4932
      CHANNELS 3 Zrotation Xrotation Yrotation
      JOINT lFoot
      {
        OFFSET 0.7333 -45.8593 -2.6451
        CHANNELS 3 Zrotation Xrotation Yrotation
        End Site
        {
          OFFSET 2.6618 -4.2699 12.3931
        }
      }
    }
  }
  JOINT rThigh
  {
    OFFSET -8.367 -8.2066 0.5982
    CHANNELS 3 Zrotation Xrotation Yrotation
    JOINT rShin
    {
      OFFSET -2.1923 -43.463 -0.4931
      CHANNELS 3 Zrotation Xrotation Yrotation
      JOINT rFoot
      {
        OFFSET -0.7333 -45.8593 -2.6451
        CHANNELS 3 Zrotation Xrotation Yrotation
        End Site
        {
          OFFSET -2.6618 -4.2699 12.3931
        }
      }
    }
  }
}
MOTION
Frames:	6
Frame Time:	0.0333333
2.63923 -1.08852 -19.7644 -130.024 -89.9981 179.977 -6.05899 4.66591 -2.74305 -11.9492 9.59161 -5.00086 -11.9493 9.59162 -5.00087 -7.50509 -6.50916 -18.3196 11.5823 -12.2293 31.6795 -9.7672 -0.675479 -15.5645 -106.828 -56.1733 -44.138 1.26203 67.048 11.4022 -35.9061 15.0731 60.4884 -6.36111e-015 -3.18055e-015 1.59028e-015 -6.36111e-015 -1.27222e-014 -1.59028e-015 -9.54166e-015 -1.11319e-014 -3.18055e-015 0 3.18055e-015 -0 6.36111e-015 0 3.18055e-015 -6.36111e-015 -1.27222e-014 4.77083e-015 -6.36111e-015 -9.54166e-015 -0 6.36111e-015 0 3.18055e-015 -6.36111e-015 -1.27222e-014 4.77083e-015 -6.36111e-015 -9.54166e-015 -0 0 3.18055e-015 -0 6.36111e-015 0 3.18055e-015 -6.36111e-015 -1.27222e-014 4.77083e-015 -6.36111e-015 -9.54166e-015 -0 6.36111e-015 0 3.18055e-015 -6.36111e-015 -1.27222e-014 4.77083e-015 -6.36111e-015 -9.54166e-015 -0 -11.4385 4.7825 -63.9431 -3.62664 31.4397 26.4647 -45.1908 -32.8628 32.4602 -3.19063 0.482595 8.75085 -1.59028e-015 -7.95139e-016 -6.36111e-015 -8.71314e-008 5.69024e-007 -8.14e-007 1.59028e-015 -3.18055e-015 6.36111e-015 -1.59028e-015 -7.95139e-016 -6.36111e-015 -7.95139e-016 -1.59028e-015 3.18055e-015 -8.71314e-008 5.69024e-007 -8.14e-007 7.95139e-016 -2.38542e-015 6.36111e-015 -7.95139e-016 -1.59028e-015 3.18055e-015 -8.71314e-008 5.69024e-007 -8.14e-007 7.95139e-016 -2.38542e-015 6.36111e-015 -1.59028e-015 -7.95139e-016 -6.36111e-015 -7.95139e-016 -1.59028e-015 3.18055e-015 -8.71314e-008 5.69024e-007 -8.14e-007 7.95139e-016 -2.38542e-015 6.36111e-015 -7.95139e-016 -1.59028e-015 3.18055e-015 -8.71314e-008 5.69024e-007 -8.14e-007 7.95139e-016 -2.38542e-015 6.36111e-015 78.0034 -45.3796 115.705 36.2867 73.847 -31.414 16.7902 46.9614 -22.3219 -74.5828 -58.3462 -70.5877 -7.45646 67.6967 4.14425 6.27737 19.2893 0.717962 
2.63923 -1.08852 -19.7644 -130.024 -89.9981 179.977 -6.06193 4.73692 -2.74366 -11.9535 9.73334 -4.99495 -11.9535 9.73334 -4.99495 -7.37282 -6.58317 -18.5007 11.6769 -12.3041 31.7062 -9.6487 -0.708473 -15.6167 -106.926 -56.1153 -44.3171 1.26204 67.048 11.4022 -36.1212 14.8131 60.5976 -1.37161e-006 -6.10142e-007 -8.05636e-007 -3.18055e-015 3.18055e-015 -0 -1.37161e-006 -6.10142e-007 -8.05636e-007 6.36111e-015 0 -1.59028e-015 -1.37161e-006 -6.10142e-007 -8.05636e-007 -3.18055e-015 -1.59028e-015 -1.59028e-015 -1.37161e-006 -6.10142e-007 -8.05636e-007 -1.37161e-006 -6.10142e-007 -8.05636e-007 -3.18055e-015 -1.59028e-015 -1.59028e-015 -1.37161e-006 -6.10142e-007 -8.05636e-007 6.36111e-015 0 -1.59028e-015 -1.37161e-006 -6.10142e-007 -8.05636e-007 -3.18055e-015 -1.59028e-015 -1.59028e-015 -1.37161e-006 -6.10142e-007 -8.05636e-007 -1.37161e-006 -6.10142e-007 -8.05636e-007 -3.18055e-015 -1.59028e-015 -1.59028e-015 -1.37161e-006 -6.10142e-007 -8.05636e-007 -11.2777 4.80884 -64.0989 -3.62663 31.4398 26.4647 -45.1908 -32.8628 32.4602 -3.39355 0.214531 8.68702 2.20695e-031 7.95139e-016 -1.59028e-014 7.95139e-016 1.59028e-015 -6.36111e-015 -1.59028e-015 1.59028e-015 -6.36111e-015 -7.95139e-016 0 -1.59028e-014 -7.95139e-016 7.95139e-016 -6.36111e-015 7.95139e-016 1.59028e-015 -6.36111e-015 1.59028e-015 1.59028e-015 -3.18055e-015 -7.95139e-016 7.95139e-016 -6.36111e-015 7.95139e-016 1.59028e-015 -6.36111e-015 1.59028e-015 1.59028e-015 -3.18055e-015 -7.95139e-016 0 -1.59028e-014 -7.95139e-016 7.95139e-016 -6.36111e-015 7.95139e-016 1.59028e-015 -6.36111e-015 1.59028e-015 1.59028e-015 -3.18055e-015 -7.95139e-016 7.95139e-016 -6.36111e-015 7.95139e-016 1.59028e-015 -6.36111e-015 1.59028e-015 1.59028e-015 -3.18055e-015 78.0034 -45.3796 115.705 36.2867 73.847 -31.414 16.7902 46.9614 -22.3219 -74.5828 -58.3462 -70.5877 -7.45646 67.6967 4.14425 6.27737 19.2893 0.717962 
2.63923 -1.08852 -19.7644 -130.024 -89.9981 179.977 -6.06464 4.80306 -2.74421 -11.9575 9.86537 -4.98938 -11.9575 9.86539 -4.98936 -7.24106 -6.65676 -18.6816 11.7716 -12.3789 31.733 -9.53839 -0.7393 -15.6653 -107.018 -56.0611 -44.4835 1.262 67.048 11.4022 -36.321 14.5705 60.698 -1.37194e-006 -6.05074e-007 -8.0847e-007 6.36111e-015 6.36111e-015 3.18055e-015 -1.37194e-006 -6.05074e-007 -8.0847e-007 3.18055e-015 3.18055e-015 1.59028e-015 -1.37194e-006 -6.05074e-007 -8.0847e-007 6.36111e-015 -4.77083e-015 -6.36111e-015 -1.37194e-006 -6.05074e-007 -8.0847e-007 -1.37194e-006 -6.05074e-007 -8.0847e-007 6.36111e-015 -4.77083e-015 -6.36111e-015 -1.37194e-006 -6.05074e-007 -8.0847e-007 3.18055e-015 3.18055e-015 1.59028e-015 -1.37194e-006 -6.05074e-007 -8.0847e-007 6.36111e-015 -4.77083e-015 -6.36111e-015 -1.37194e-006 -6.05074e-007 -8.0847e-007 -1.37194e-006 -6.05074e-007 -8.0847e-007 6.36111e-015 -4.77083e-015 -6.36111e-015 -1.37194e-006 -6.05074e-007 -8.0847e-007 -11.1279 4.833 -64.244 -3.62664 31.4398 26.4647 -45.1908 -32.8628 32.4602 -3.58285 -0.0349554 8.62659 7.95139e-016 -7.95139e-016 -0 -7.83698e-008 5.67256e-007 -8.26151e-007 0 1.59028e-015 -0 -7.95139e-016 1.59028e-015 -0 -0 -7.95139e-016 -0 -7.83698e-008 5.67256e-007 -8.26151e-007 0 7.95139e-016 -0 -0 -7.95139e-016 -0 -7.83698e-008 5.67256e-007 -8.26151e-007 0 7.95139e-016 -0 -7.95139e-016 1.59028e-015 -0 -0 -7.95139e-016 -0 -7.83698e-008 5.67256e-007 -8.26151e-007 0 7.95139e-016 -0 -0 -7.95139e-016 -0 -7.83698e-008 5.67256e-007 -8.26151e-007 0 7.95139e-016 -0 78.0034 -45.3796 115.705 36.2867 73.847 -31.414 16.7902 46.9614 -22.3219 -74.5828 -58.3462 -70.5877 -7.45646 67.6967 4.14425 6.27737 19.2893 0.717962 
2.63923 -1.08852 -19.7644 -130.024 -89.9981 179.977 -6.06731 4.8692 -2.74476 -11.9614 9.99747 -4.98375 -11.9613 9.99746 -4.98376 -7.10889 -6.73218 -18.8621 11.8664 -12.4537 31.7599 -9.42807 -0.770238 -15.7139 -107.108 -56.0068 -44.6496 1.26204 67.048 11.4021 -36.5201 14.3275 60.7974 1.33932e-006 3.99337e-007 3.85739e-006 2.60517e-006 -1.94385e-006 -2.47528e-006 1.37225e-006 5.99997e-007 8.1129e-007 -3.18055e-015 6.36111e-015 1.59028e-015 1.33932e-006 3.99337e-007 3.85739e-006 2.60517e-006 -1.94385e-006 -2.47528e-006 1.37225e-006 5.99997e-007 8.1129e-007 1.33932e-006 3.99337e-007 3.85739e-006 2.60517e-006 -1.94385e-006 -2.47528e-006 1.37225e-006 5.99997e-007 8.1129e-007 -3.18055e-015 6.36111e-015 1.59028e-015 1.33932e-006 3.99337e-007 3.85739e-006 2.60517e-006 -1.94385e-006 -2.47528e-006 1.37225e-006 5.99997e-007 8.1129e-007 1.33932e-006 3.99337e-007 3.85739e-006 2.60517e-006 -1.94385e-006 -2.47528e-006 1.37225e-006 5.99997e-007 8.1129e-007 -10.9779 4.85677 -64.3893 -3.62664 31.4398 26.4647 -45.1908 -32.8628 32.4602 -3.77247 -0.284311 8.56532 -1.59028e-015 1.59028e-015 3.18055e-015 -2.21552e-007 4.28918e-007 2.39142e-006 -1.59028e-015 3.18055e-015 -0 4.41391e-032 -7.95139e-016 3.18055e-015 5.29669e-031 -2.38542e-015 1.27222e-014 -2.21552e-007 4.28918e-007 2.39142e-006 -2.38542e-015 3.18055e-015 3.18055e-015 5.29669e-031 -2.38542e-015 1.27222e-014 -2.21552e-007 4.28918e-007 2.39142e-006 -2.38542e-015 3.18055e-015 3.18055e-015 4.41391e-032 -7.95139e-016 3.18055e-015 5.29669e-031 -2.38542e-015 1.27222e-014 -2.21552e-007 4.28918e-007 2.39142e-006 -2.38542e-015 3.18055e-015 3.18055e-015 5.29669e-031 -2.38542e-015 1.27222e-014 -2.21552e-007 4.28918e-007 2.39142e-006 -2.38542e-015 3.18055e-015 3.18055e-015 78.0034 -45.3796 115.705 36.2867 73.847 -31.414 16.7902 46.9614 -22.3219 -74.5828 -58.3462 -70.5877 -7.45646 67.6967 4.14425 6.27737 19.2893 0.717962 
2.63923 -1.08852 -19.7644 -130.024 -89.9981 179.977 -6.06996 4.93538 -2.74527 -11.9652 10.1296 -4.9781 -11.9652 10.1295 -4.97811 -6.97754 -6.80729 -19.0425 11.9612 -12.5284 31.787 -9.31781 -0.801238 -15.7623 -107.199 -55.9523 -44.8153 1.26199 67.048 11.4022 -36.7187 14.0841 60.8959 -3.18055e-015 0 4.77083e-015 -3.18055e-015 -4.77083e-015 -6.36111e-015 -3.18055e-015 -4.77083e-015 -7.95139e-015 -3.18055e-015 -1.59028e-015 4.77083e-015 -6.36111e-015 3.18055e-015 -0 6.36111e-015 -3.18055e-015 -1.59028e-015 6.36111e-015 -1.59028e-015 -1.59028e-015 -6.36111e-015 3.18055e-015 -0 6.36111e-015 -3.18055e-015 -1.59028e-015 6.36111e-015 -1.59028e-015 -1.59028e-015 -3.18055e-015 -1.59028e-015 4.77083e-015 -6.36111e-015 3.18055e-015 -0 6.36111e-015 -3.18055e-015 -1.59028e-015 6.36111e-015 -1.59028e-015 -1.59028e-015 -6.36111e-015 3.18055e-015 -0 6.36111e-015 -3.18055e-015 -1.59028e-015 6.36111e-015 -1.59028e-015 -1.59028e-015 -10.8279 4.88019 -64.5346 -3.62662 31.4398 26.4647 -45.1908 -32.8628 32.4602 -3.96241 -0.533538 8.5032 1.59028e-015 0 6.36111e-015 -1.99558e-007 -7.40888e-008 1.56527e-008 -7.95139e-016 0 -1.59028e-014 2.38542e-015 0 6.36111e-015 -2.38542e-015 -1.59028e-015 9.54166e-015 -1.99558e-007 -7.40888e-008 1.56527e-008 3.97252e-031 2.38542e-015 -9.54166e-015 -2.38542e-015 -1.59028e-015 9.54166e-015 -1.99558e-007 -7.40888e-008 1.56527e-008 3.97252e-031 2.38542e-015 -9.54166e-015 2.38542e-015 0 6.36111e-015 -2.38542e-015 -1.59028e-015 9.54166e-015 -1.99558e-007 -7.40888e-008 1.56527e-008 3.97252e-031 2.38542e-015 -9.54166e-015 -2.38542e-015 -1.59028e-015 9.54166e-015 -1.99558e-007 -7.40888e-008 1.56527e-008 3.97252e-031 2.38542e-015 -9.54166e-015 78.0034 -45.3796 115.705 36.2867 73.847 -31.414 16.7902 46.9614 -22.3219 -74.5828 -58.3462 -70.5877 -7.45646 67.6967 4.14425 6.27737 19.2893 0.717962 
2.63923 -1.08852 -19.7644 -130.024 -89.9981 179.977 -6.07256 5.00157 -2.74577 -11.969 10.2617 -4.97245 -11.969 10.2617 -4.97243 -6.84625 -6.88267 -19.2225 12.056 -12.603 31.8142 -9.20754 -0.832371 -15.8108 -107.289 -55.8977 -44.9805 1.26203 67.048 11.4021 -36.9167 13.8403 60.9935 -3.18055e-015 1.59028e-015 -1.59028e-015 -3.18055e-015 7.95139e-015 4.77083e-015 -3.18055e-015 1.11319e-014 -3.18055e-015 -3.18055e-015 3.18055e-015 -1.59028e-015 -7.06225e-031 6.36111e-015 6.36111e-015 -6.36111e-015 0 -0 -3.18055e-015 -3.18055e-015 3.18055e-015 -7.06225e-031 6.36111e-015 6.36111e-015 -6.36111e-015 0 -0 -3.18055e-015 -3.18055e-015 3.18055e-015 -3.18055e-015 3.18055e-015 -1.59028e-015 -7.06225e-031 6.36111e-015 6.36111e-015 -6.36111e-015 0 -0 -3.18055e-015 -3.18055e-015 3.18055e-015 -7.06225e-031 6.36111e-015 6.36111e-015 -6.36111e-015 0 -0 -3.18055e-015 -3.18055e-015 3.18055e-015 -10.6778 4.9032 -64.68 -3.62665 31.4397 26.4647 -45.1908 -32.8628 32.4602 -4.15269 -0.782624 8.44024 -1.9962e-007 -7.39377e-008 1.5581e-008 7.95139e-016 -3.18055e-015 -1.27222e-014 -7.95139e-016 -3.97569e-015 -6.36111e-015 -1.59028e-015 1.59028e-015 3.18055e-015 -1.9962e-007 -7.39377e-008 1.55811e-008 -7.95139e-016 -3.18055e-015 -9.54166e-015 -3.18055e-015 -2.38542e-015 -1.59028e-014 -1.9962e-007 -7.39377e-008 1.55811e-008 -7.95139e-016 -3.18055e-015 -9.54166e-015 -3.18055e-015 -2.38542e-015 -1.59028e-014 -1.59028e-015 1.59028e-015 3.18055e-015 -1.9962e-007 -7.39377e-008 1.55811e-008 -7.95139e-016 -3.18055e-015 -9.54166e-015 -3.18055e-015 -2.38542e-015 -1.59028e-014 -1.9962e-007 -7.39377e-008 1.55811e-008 -7.95139e-016 -3.18055e-015 -9.54166e-015 -3.18055e-015 -2.38542e-015 -1.59028e-014 78.0034 -45.3796 115.705 36.2867 73.847 -31.414 16.7902 46.9614 -22.3219 -74.5828 -58.3462 -70.5877 -7.45646 67.6967 4.14425 6.27737 19.2893 0.717962 
